<svg xmlns="http://www.w3.org/2000/svg" xmlns:xlink="http://www.w3.org/1999/xlink" version="1.1" x="0px" y="0px" viewBox="0 0 100 28" enable-background="new 0 0 100 28" xml:space="preserve"><g><path d="M93.301,3.903c-4.633,0.479-5.887,6.338-6.108,7.648c0.528-1.366,5.718-3.849,6.726-0.991   c1.081,3.058-0.853,7.377-7.869,6.837c-7.018-0.54-9.447-6.836-18.083-13.674c-8.637-6.837-18.173,0-18.173,0s-9.4-6.837-18.037,0   c-8.637,6.837-10.999,13.134-18.014,13.674c-7.018,0.54-8.918-3.779-7.839-6.837c1.009-2.859,6.217-0.374,6.746,0.992   c-0.222-1.306-1.467-7.169-6.102-7.648C1.329,3.363,0.13,9.255,0.13,12.134c0,2.878,0.686,15.157,21.736,15.157   s27.927-13.303,27.927-13.303s7.009,13.303,28.061,13.303c21.05,0,21.868-12.279,21.868-15.157   C99.722,9.255,98.518,3.363,93.301,3.903z"></path></g></svg>