<?xml version="1.0" encoding="UTF-8" standalone="no"?>
<!-- Created with Inkscape (http://www.inkscape.org/) -->
<svg
   xmlns:dc="http://purl.org/dc/elements/1.1/"
   xmlns:cc="http://creativecommons.org/ns#"
   xmlns:rdf="http://www.w3.org/1999/02/22-rdf-syntax-ns#"
   xmlns:svg="http://www.w3.org/2000/svg"
   xmlns="http://www.w3.org/2000/svg"
   xmlns:sodipodi="http://sodipodi.sourceforge.net/DTD/sodipodi-0.dtd"
   xmlns:inkscape="http://www.inkscape.org/namespaces/inkscape"
   width="744.09448819"
   height="1052.3622047"
   id="svg2"
   sodipodi:version="0.32"
   inkscape:version="0.46+pre4"
   sodipodi:docname="thumbs-up-black.svg"
   inkscape:output_extension="org.inkscape.output.svg.inkscape">
  <defs
     id="defs4">
    <inkscape:perspective
       sodipodi:type="inkscape:persp3d"
       inkscape:vp_x="0 : 526.18109 : 1"
       inkscape:vp_y="0 : 1000 : 0"
       inkscape:vp_z="744.09448 : 526.18109 : 1"
       inkscape:persp3d-origin="372.04724 : 350.78739 : 1"
       id="perspective10" />
    <inkscape:perspective
       id="perspective2390"
       inkscape:persp3d-origin="372.04724 : 350.78739 : 1"
       inkscape:vp_z="744.09448 : 526.18109 : 1"
       inkscape:vp_y="0 : 1000 : 0"
       inkscape:vp_x="0 : 526.18109 : 1"
       sodipodi:type="inkscape:persp3d" />
    <inkscape:perspective
       id="perspective2411"
       inkscape:persp3d-origin="372.04724 : 350.78739 : 1"
       inkscape:vp_z="744.09448 : 526.18109 : 1"
       inkscape:vp_y="0 : 1000 : 0"
       inkscape:vp_x="0 : 526.18109 : 1"
       sodipodi:type="inkscape:persp3d" />
  </defs>
  <sodipodi:namedview
     id="base"
     pagecolor="#ffffff"
     bordercolor="#666666"
     borderopacity="1.0"
     gridtolerance="10000"
     guidetolerance="10"
     objecttolerance="10"
     inkscape:pageopacity="0.0"
     inkscape:pageshadow="2"
     inkscape:zoom="3.959798"
     inkscape:cx="411.40701"
     inkscape:cy="588.3484"
     inkscape:document-units="px"
     inkscape:current-layer="layer1"
     showgrid="false"
     inkscape:window-width="1280"
     inkscape:window-height="751"
     inkscape:window-x="-4"
     inkscape:window-y="-4" />
  <metadata
     id="metadata7">
    <rdf:RDF>
      <cc:Work
         rdf:about="">
        <dc:format>image/svg+xml</dc:format>
        <dc:type
           rdf:resource="http://purl.org/dc/dcmitype/StillImage" />
        <dc:title>thumbs up</dc:title>
        <dc:creator>
          <cc:Agent>
            <dc:title>Mohamed Ibrahim</dc:title>
          </cc:Agent>
        </dc:creator>
        <dc:subject>
          <rdf:Bag>
            <rdf:li>thumbs up yes vote plus</rdf:li>
          </rdf:Bag>
        </dc:subject>
      </cc:Work>
    </rdf:RDF>
  </metadata>
  <g
     inkscape:label="Layer 1"
     inkscape:groupmode="layer"
     id="layer1">
    <path
       style="fill:#000000"
       d="M 345.72113,527.95063 C 342.49804,524.72754 342.56708,521.10057 345.90145,518.47776 C 348.17557,516.68894 349.93154,516.40518 358.72713,516.40518 C 368.08652,516.40518 369.09536,516.59401 371.09228,518.71963 C 373.94085,521.7518 373.84473,524.91795 370.81204,527.95063 C 368.53031,530.23237 367.64706,530.40518 358.26659,530.40518 C 348.88612,530.40518 348.00287,530.23237 345.72113,527.95063 z M 380.37081,528.59992 C 379.48425,526.94337 379.69697,521.30226 380.86094,515.6024 C 381.11958,514.33587 382.86552,512.39434 384.74082,511.28788 C 386.99668,509.95689 388.69803,507.84233 389.76866,505.03892 C 391.31327,500.99442 391.28699,500.53472 389.19079,494.93213 C 387.04086,489.18594 387.03168,488.95974 388.75383,484.1706 C 391.04613,477.79593 390.29067,472.35908 386.35016,466.87202 C 383.48635,462.88424 383.32025,462.18514 383.90573,456.58363 C 384.43679,451.50266 384.20433,450.04052 382.40177,447.1239 C 381.2291,445.22649 378.92175,439.00106 377.27432,433.28962 C 374.85663,424.90782 374.27779,421.00561 374.27279,413.05518 C 374.27279,413.05518 373.89423,408.20844 375.0242,405.47802 C 375.5758,404.14516 377.66659,399.80518 377.66659,399.80518 C 380.66146,396.81031 381.6862,396.40518 386.26659,396.40518 C 390.84698,396.40518 391.87172,396.81031 394.86659,399.80518 C 397.43925,402.37784 398.26659,404.05767 398.26659,406.7085 C 398.26659,412.8754 402.10903,429.56285 404.79146,435.04553 C 407.58363,440.75252 413.34083,446.35057 419.76659,449.6067 C 426.88137,453.21198 430.0358,456.25572 433.18156,462.55094 C 437.00132,471.01454 436.79822,480.2208 436.24463,489.3149 C 436.21966,512.72426 435.7548,514.6656 428.21601,522.84422 C 422.23778,529.32984 417.88637,530.40518 397.62027,530.40518 C 382.94592,530.40518 381.24149,530.2268 380.37081,528.59992 z M 333.28415,507.40858 C 327.49577,502.81696 327.48289,497.17491 333.01078,492.93304 C 337.46647,491.24877 337.16387,490.51044 355.69497,490.40518 C 364.04728,490.18331 382.93621,491.11181 383.06037,500.30458 C 383.18121,509.25132 365.08143,509.06294 356.89159,508.8925 C 343.6523,509.11759 334.77057,509.06335 333.28415,507.40858 z M 330.90145,482.3326 C 329.20081,480.99488 328.26659,478.65758 328.26659,476.88981 C 328.26659,474.10063 331.36139,470.49986 333.55554,470.28855 C 336.03099,470.05015 345.39997,470.20785 355.07463,470.3527 C 369.3748,470.56682 382.39203,470.99133 383.9423,478.05407 C 383.17848,483.01138 378.51691,484.40518 354.93357,484.40518 C 334.80073,484.40518 333.38061,484.28271 330.90145,482.3326 z M 341.01926,460.14503 C 338.31472,455.43591 338.16897,454.08438 340.5825,450.31423 C 340.5825,450.31423 342.66773,448.14254 343.8602,447.66787 C 347.6657,446.15309 357.76049,446.78399 357.76049,446.78399 C 374.59008,447.25111 376.28863,451.34171 376.37755,455.68801 C 376.55469,464.34686 364.95031,464.371 357.71711,464.40518 C 357.71711,464.40518 347.59805,464.07248 344.09065,462.63741 C 342.57424,462.01696 341.01926,460.14503 341.01926,460.14503 z"
       id="path2417"
       sodipodi:nodetypes="csssssccssssssssscscsssssccssccccscccssscscccssscsc" />
  </g>
</svg>
