<?xml version="1.0" standalone="no"?>
<!DOCTYPE svg PUBLIC "-//W3C//DTD SVG 20010904//EN"
 "http://www.w3.org/TR/2001/REC-SVG-20010904/DTD/svg10.dtd">
<svg version="1.0" xmlns="http://www.w3.org/2000/svg"
 width="732.000000pt" height="1280.000000pt" viewBox="0 0 732.000000 1280.000000"
 preserveAspectRatio="xMidYMid meet">
<metadata>
Created by potrace 1.15, written by Peter Selinger 2001-2017
</metadata>
<g transform="translate(0.000000,1280.000000) scale(0.100000,-0.100000)"
fill="#000000" stroke="none">
<path d="M1025 12785 c-33 -7 -96 -18 -140 -24 -154 -24 -294 -95 -511 -259
l-102 -76 -136 -259 -136 -259 155 -406 c85 -223 159 -408 165 -412 6 -4 113
-37 238 -74 125 -38 228 -69 229 -70 2 -1 -4 -38 -13 -82 -17 -90 -42 -224
-49 -271 -5 -26 -18 -41 -65 -73 -162 -110 -218 -181 -268 -340 -43 -139 -47
-169 -47 -405 l0 -230 52 -130 c290 -723 428 -1479 459 -2515 3 -124 7 -400 8
-615 l1 -390 54 -7 c48 -5 65 -2 137 28 46 19 85 34 87 34 7 0 45 -99 63 -165
15 -53 18 -164 25 -940 4 -484 10 -1028 13 -1210 7 -356 -4 -942 -15 -820 -4
39 -5 -4 -4 -95 2 -110 0 -150 -5 -120 -6 32 -8 10 -6 -75 2 -69 0 -105 -4
-85 -6 30 -8 25 -9 -31 -4 -231 -86 -1193 -117 -1378 l-5 -33 45 4 c25 2 46 3
46 2 0 -1 -14 -111 -31 -245 -41 -315 -46 -541 -13 -586 12 -15 36 -37 55 -48
32 -19 53 -20 419 -21 354 -1 461 -7 685 -34 44 -5 150 -16 235 -25 85 -8 198
-19 250 -25 52 -5 127 -12 165 -15 l70 -6 85 76 c47 41 86 81 87 88 2 6 -21
82 -51 167 l-53 155 -119 22 c-66 12 -169 30 -230 41 -105 19 -133 30 -489
193 l-377 173 4 74 c3 67 6 76 33 99 28 25 33 25 130 20 57 -3 145 -17 205
-32 131 -33 247 -41 254 -17 2 10 14 64 26 122 12 58 55 204 95 325 179 533
303 1241 369 2100 22 273 46 619 46 653 l1 27 30 -35 c16 -19 35 -47 42 -62 7
-14 55 -61 107 -104 218 -177 412 -399 517 -592 83 -151 110 -233 122 -377 49
-591 280 -1190 704 -1826 126 -190 156 -223 214 -243 25 -9 58 -16 72 -16 51
0 57 -15 23 -55 -54 -60 -39 -107 69 -222 56 -59 228 -319 343 -517 l78 -136
37 29 c20 16 73 47 117 69 60 30 95 56 135 100 45 50 156 126 684 467 347 224
630 408 631 409 0 0 -3 46 -9 101 -11 118 -37 195 -77 229 l-30 25 -402 -135
c-222 -74 -447 -145 -501 -158 l-99 -24 -75 101 c-41 56 -79 112 -84 125 -5
13 -9 80 -9 150 l0 127 85 48 c47 27 85 50 85 51 0 2 -33 72 -74 157 -40 85
-189 406 -329 714 -335 734 -383 839 -548 1168 -345 691 -631 1154 -937 1522
-135 161 -292 325 -319 331 -19 5 -72 77 -224 305 l-199 299 183 0 c101 0 225
3 274 6 l91 7 -68 166 c-107 262 -154 366 -308 676 -79 160 -164 337 -188 394
-119 278 -172 560 -189 1005 l-6 168 28 -4 c15 -3 255 -51 533 -108 278 -56
576 -117 664 -135 l158 -32 97 118 c53 65 98 118 101 118 5 1 25 -131 57 -366
3 -24 8 -43 12 -43 4 0 63 61 132 136 l124 135 3 -76 3 -77 -128 -134 c-70
-74 -152 -161 -182 -194 l-53 -60 193 91 c292 136 386 179 392 179 3 0 -76
-103 -177 -228 -100 -125 -186 -234 -190 -242 -5 -8 102 95 238 230 l246 245
91 230 c51 126 95 233 98 236 11 12 425 27 444 17 10 -5 35 -24 55 -42 21 -18
79 -51 131 -75 85 -39 101 -43 170 -43 69 1 79 -2 104 -25 18 -18 27 -37 27
-58 0 -57 46 -95 78 -63 18 18 15 119 -4 146 -14 21 -14 23 13 32 15 5 41 17
57 25 16 9 30 14 31 13 1 -2 18 -32 38 -68 20 -36 41 -65 49 -65 7 0 18 12 25
26 14 29 1 82 -32 133 -9 14 -13 30 -9 37 4 7 17 -11 34 -47 35 -78 52 -92 85
-70 15 10 25 26 25 40 0 23 -68 137 -89 150 -6 4 -11 19 -11 34 l0 26 26 -35
c14 -19 41 -64 59 -101 19 -36 40 -68 47 -71 18 -6 45 10 58 33 13 25 -2 57
-80 162 -46 64 -77 92 -166 155 -60 42 -147 96 -193 121 -80 42 -90 45 -180
49 -62 3 -220 -7 -446 -27 -350 -32 -350 -32 -445 -15 -107 20 -160 30 -240
44 -30 6 -228 42 -440 81 -212 39 -410 75 -440 81 -30 5 -75 14 -100 18 -25 5
-200 36 -390 71 -338 61 -347 63 -430 107 -91 48 -122 69 -74 51 24 -9 78 -2
314 40 l285 50 372 -28 c361 -27 377 -29 542 -71 l170 -43 100 41 101 42 48
-19 c114 -46 475 -181 477 -178 1 2 -62 63 -141 137 -79 74 -143 136 -141 137
1 1 162 -47 357 -107 195 -60 357 -109 359 -109 3 0 -71 51 -163 114 -92 63
-171 118 -174 122 -9 10 -20 16 247 -140 128 -75 235 -136 236 -134 2 2 -28
119 -67 261 l-71 257 58 127 c32 71 64 134 70 141 10 11 30 8 111 -17 116 -37
132 -37 266 -11 57 11 116 20 131 20 16 0 70 -22 120 -50 74 -39 98 -58 120
-93 37 -58 82 -101 100 -94 48 18 10 103 -87 197 l-69 68 58 17 c56 16 60 16
99 -2 57 -25 91 -56 137 -125 22 -33 46 -57 52 -55 6 2 15 18 19 36 13 49 -27
129 -86 171 -25 18 -46 37 -46 41 0 17 23 21 32 5 19 -35 107 -62 109 -33 2
18 2 19 -6 57 -6 29 -5 33 6 23 20 -20 29 -16 45 22 28 67 12 128 -57 223 -42
57 -48 62 -117 83 -41 12 -94 36 -119 52 -70 47 -125 48 -222 3 -252 -114
-567 -194 -931 -235 -195 -22 -378 -31 -865 -41 -646 -13 -881 -28 -1145 -74
-47 -8 -152 -18 -235 -21 l-150 -7 -285 55 c-157 30 -530 101 -829 158 l-543
103 -41 58 c-23 32 -46 58 -52 58 -16 0 -51 118 -39 129 5 5 80 37 168 72 257
102 292 147 290 374 -1 203 -53 398 -156 583 -45 82 -124 185 -169 221 -17 13
-49 51 -72 86 -29 43 -81 95 -167 166 -176 147 -352 287 -310 248 19 -18 35
-38 35 -44 1 -5 7 -9 15 -7 8 2 12 0 7 -4 -4 -4 1 -16 10 -27 10 -12 -36 23
-102 76 -66 53 -124 96 -130 96 -5 -1 -37 -7 -70 -14z m356 -202 c13 -16 12
-17 -3 -4 -10 7 -18 15 -18 17 0 8 8 3 21 -13z m5829 -2035 c11 -18 20 -45 20
-60 0 -15 5 -39 11 -55 l10 -28 -25 25 c-20 20 -56 113 -56 145 0 16 23 0 40
-27z"/>
</g>
</svg>
