<svg height="512pt" viewBox="0 -30 512.00144 512" width="512pt" xmlns="http://www.w3.org/2000/svg"><path d="m471.296875 175.355469 4.820313-6.402344c6.546874-28.238281-15.433594-39.582031-15.433594-39.582031 1.539062-23.386719-32.675782-33.015625-32.675782-33.015625 0-63.820313-73.605468-56.550781-73.605468-56.550781-10.359375-29.148438-52.488282-19.246094-52.488282-19.246094-10.746093-3.8125-20.921874-7.171875-30.773437-8.507813-9.839844-1.335937-29.75-2.226562-39.679687-2.019531-9.976563.207031-29.933594 1.835938-39.738282 3.6875-20.507812 3.875-31.425781 12.636719-31.425781 12.636719-53.457031-1.066407-58.480469 30.304687-58.480469 30.304687-46.734375-9.34375-50 32.402344-50 32.402344-54.207031 18.546875-33.945312 73.855469-33.945312 73.855469-19.277344 26.433593 3.160156 38.269531 3.160156 38.269531-7.117188 57.722656 76.925781 60.160156 76.925781 60.160156l8.644531-2.113281c-3.761718 27.351563 13.261719 57.578125 61.578126 64.730469 0 0 19.578124 1.996094 48.636718-2.011719 43.582032 37.964844 46.203125 96.113281 55.464844 118.800781l45.425781-7.5625c-4.574219-15.78125-5.078125-31.308594-3.90625-44.605468 6.503907 3.09375 13.515625 5.644531 20.949219 7.515624 45.492188 11.453126 89.269531-6.65625 97.773438-40.445312 1.269531-5.035156 1.675781-10.132812 1.308593-15.199219 18.511719.363281 38.902344-8.121093 54.53125-38.230469-.003906 0 39.9375-89.699218-17.066406-126.871093zm0 0" fill="#fe8f8d"/><path d="m485.183594 174.921875c.3125-.652344.550781-1.335937.714844-2.042969 5.515624-23.796875-5.699219-39.777344-15.359376-47.347656-2.191406-17.847656-19.015624-29.265625-32.785156-34.777344-1.402344-16.8125-7.785156-30.464844-19.03125-40.65625-18.40625-16.675781-44.777344-18.925781-57.671875-18.925781-.132812 0-.261719 0-.394531 0-12.5625-21.472656-41.308594-22.464844-58.070312-19.351563-9.832032-3.359374-19.746094-6.03125-29.5-7.957031-5.433594-1.070312-10.71875 2.460938-11.792969 7.902344-1.074219 5.4375 2.464843 10.71875 7.90625 11.792969 9.683593 1.914062 19.566406 4.644531 29.359375 8.117187 1.816406.648438 3.777344.753907 5.652344.3125.335937-.078125 33.464843-7.609375 40.730468 12.839844 1.542969 4.332031 5.847656 7.058594 10.425782 6.628906.316406-.03125 31.933593-2.808593 49.933593 13.574219 6.332031 5.765625 10.242188 13.203125 11.839844 22.566406-13.542969.648438-34.667969 5.40625-45.664063 27.179688-2.5 4.949218-.519531 10.984375 4.429688 13.488281 1.453125.730469 3 1.078125 4.519531 1.078125 3.667969 0 7.203125-2.015625 8.96875-5.511719 9.257813-18.320312 32.261719-16.480469 36.4375-15.980469 3.710938 1.21875 25.722657 9.066407 24.835938 22.519532-.261719 3.984375 1.863281 7.746094 5.414062 9.578125.035157.015625 3.597657 2.019531 6.6875 6.226562 4.058594 5.523438 5.390625 12.308594 3.976563 20.191407l-.675782.898437c-15.582031 1.710937-39.015624 11.515625-42.214843 40.5-.605469 5.511719 3.367187 10.472656 8.878906 11.082031.375.039063.746094.058594 1.113281.058594 5.050782 0 9.398438-3.800781 9.964844-8.9375 2.027344-18.367188 17.800781-22.019531 24.601562-22.738281 43.988282 32.265625 12.9375 107.511719 10.882813 112.335937-10.890625 20.820313-24.558594 31.472656-41.691406 32.445313-7.34375-6.136719-26.570313-19.78125-60.171875-27.832031-5.394532-1.292969-10.8125 2.03125-12.105469 7.421874-1.289063 5.394532 2.03125 10.8125 7.425781 12.101563 28.710938 6.878906 45.101563 18.179687 51.148438 23.039063-.078125 2.753906-.441406 5.476562-1.109375 8.121093-7.140625 28.367188-45.535157 43.246094-85.589844 33.160157-6.628906-1.671876-13.050781-3.972657-19.085937-6.84375-2.96875-1.414063-6.441407-1.28125-9.296876.351562-2.851562 1.628906-4.726562 4.558594-5.015624 7.832031-1.148438 12.996094-.589844 25.515625 1.652343 37.351563l-26.359375 4.382812c-1.125-3.992187-2.253906-8.660156-3.476562-13.734375-5.890625-24.394531-14.398438-59.585937-39.414063-88.460937 20.824219-5.070313 40.859375-8.417969 59.742188-9.96875 5.527343-.453125 9.640625-5.300782 9.183593-10.824219-.453124-5.527344-5.304687-9.632813-10.824218-9.183594-24.957032 2.046875-51.714844 7.039063-79.542969 14.832031-25.511719 3.453126-43.378906 2.070313-45.378906 1.894532-43.515625-6.539063-55.667969-32.832032-52.839844-53.390625.453125-3.292969-.753906-6.597657-3.222656-8.824219s-5.875-3.085938-9.105469-2.296875l-7.277344 1.78125c-12.691406-.628906-44.414062-5.542969-58.691406-22.167969-6.203125-7.226562-8.578125-15.953125-7.253906-26.679687.507812-4.140625-1.59375-8.164063-5.28125-10.105469-.042969-.023438-4.316406-2.597656-5.367188-7.132812-1.25-5.402344 2.375-11.871094 5.636719-16.34375 1.972656-2.707032 2.464844-6.222657 1.3125-9.367188-.078125-.210938-7.480469-21.566406.972656-39.292969 4.703125-9.863281 13.71875-17.136719 26.800781-21.613281 3.789063-1.296875 6.4375-4.652344 6.75-8.644531.011719-.128907 1.289063-12.859375 10.5625-19.773438 6.40625-4.773437 15.648438-5.996093 27.464844-3.632812 2.679688.53125 5.457032-.042969 7.699219-1.601563s3.753906-3.960937 4.183594-6.660156c.035156-.21875 4.53125-21.109375 43.699219-21.851562 5.941406 8.113281 19.050781 29.429687 9.324218 48.527343-2.515625 4.941407-.546875 10.988281 4.390625 13.503907 1.460938.742187 3.015625 1.09375 4.546875 1.09375 3.65625 0 7.183594-2.003907 8.957032-5.484376 3.617187-7.105468 5.28125-14.230468 5.625-21.109374 5.417968-2.304688 13.855468-4.78125 20.589843-2.777344 4.378907 1.296875 7.746094 4.476562 10.296875 9.710937 1.738282 3.570313 5.3125 5.644531 9.035156 5.644531 1.472657 0 2.972657-.328124 4.390626-1.019531 4.984374-2.425781 7.054687-8.4375 4.625-13.421875-5.011719-10.28125-12.835938-17.253906-22.632813-20.164062-10.433594-3.097656-21.050781-1.121094-28.90625 1.527344-2.621094-8.960938-6.742187-16.746094-10.367187-22.476563 4.726562-2.058594 11.109374-4.457031 18.96875-6.523437 5.363281-1.40625 8.570312-6.898438 7.160156-12.257813-1.410156-5.367187-6.902344-8.566406-12.261719-7.160156-15.867187 4.167969-26.738281 9.589843-31.558594 12.28125-40.660156.007812-56.378906 17.769531-62.296875 29.269531-14.011718-1.324219-25.8125 1.578125-35.171875 8.660156-10.910156 8.253906-15.378906 20.132813-17.175781 27.46875-15.425781 6.460938-26.453125 16.480469-32.824219 29.839844-9.246093 19.394531-5.683593 40.261719-3.242187 49.710938-6.140625 9.910156-8.199219 19.46875-6.113282 28.46875 1.765626 7.632812 6.128907 12.941406 9.804688 16.230468-.464844 13.90625 3.699219 26.074219 12.421875 36.234375 21.625 25.175781 64.726563 28.695313 73.238281 29.148438 2.191406 27.996093 23.503906 55.621093 70.457032 62.570312.148437.023438.300781.042969.453124.058594.417969.042969 5.617188.550781 14.402344.550781 7.976563 0 18.921875-.421875 31.925782-2 27.695312 26.179688 36.285156 61.707032 42.609374 87.914063 2.304688 9.539062 4.292969 17.78125 6.886719 24.132812 1.558594 3.820313 5.265625 6.242188 9.289063 6.242188.546875 0 1.097656-.042969 1.652344-.136719l45.425781-7.558594c2.828125-.472656 5.320312-2.128906 6.847656-4.554687s1.945313-5.390625 1.144531-8.144531c-2.476562-8.542969-3.820312-17.640626-4.019531-27.179688 2.945313.984375 5.941406 1.855469 8.96875 2.617188 24.082031 6.0625 48.601563 4.746093 69.046875-3.710938 21.476562-8.882812 36.007812-24.515625 40.917969-44.015625.675781-2.695313 1.148437-5.4375 1.429687-8.207031 17.136719-2.382813 37.765625-12.582032 53.582032-43.046875.09375-.179688.179687-.359375.261718-.542969.433594-.972656 10.664063-24.199219 13.65625-52.523438 3.695313-35.003906-5.273437-62.601562-26.007812-80.523437zm0 0"/><path d="m233.519531 145.421875c.105469.582031 2.714844 14.417969 12.3125 27.996094 2.289063 3.238281 5.09375 6.621093 8.484375 9.863281-1.804687 10.3125-17.578125 15.957031-17.949218 16.085938-5.234376 1.785156-8.039063 7.46875-6.273438 12.710937 1.414062 4.191406 5.320312 6.835937 9.511719 6.835937 1.066406 0 2.148437-.171874 3.210937-.53125 9.28125-3.128906 22.765625-10.921874 28.730469-23.445312 7.804687 3.523438 17.214844 5.804688 28.515625 5.804688.71875 0 1.449219-.011719 2.183594-.027344 5.542968-.144532 9.921875-4.75 9.777344-10.292969-.136719-5.457031-4.601563-9.785156-10.03125-9.785156-.085938 0-.171876.003906-.257813.003906-40.28125 1.011719-48.132813-37.109375-48.472656-38.859375-1.011719-5.433594-6.230469-9.035156-11.671875-8.035156-5.453125.992187-9.066406 6.222656-8.070313 11.675781zm0 0"/><path d="m355.914062 233.570312c17.429688-30.457031 10.546876-54.007812 1.707032-68.402343-9.339844-15.199219-22.796875-23.207031-23.363282-23.539063-4.769531-2.796875-10.875-1.203125-13.695312 3.546875-2.820312 4.753907-1.246094 10.902344 3.492188 13.746094.101562.058594 10.175781 6.183594 16.800781 17.324219 8.363281 14.0625 7.5625 29.992187-2.371094 47.351562-2.753906 4.8125-1.082031 10.945313 3.730469 13.699219 1.570312.902344 3.285156 1.328125 4.972656 1.328125 3.488281 0 6.871094-1.8125 8.726562-5.054688zm0 0"/><path d="m462.316406 257.035156c4.511719-3.222656 5.558594-9.492187 2.335938-14.003906s-9.492188-5.558594-14.003906-2.335938c-9.789063 6.992188-18.695313 9.621094-26.472657 7.808594-11.71875-2.722656-18.375-14.753906-18.53125-15.035156-2.578125-4.878906-8.613281-6.761719-13.515625-4.207031-4.917968 2.566406-6.824218 8.628906-4.257812 13.542969.394531.753906 9.09375 17.078124 26.464844 23.640624-3.109376 12.28125-5.089844 33.953126 13.058593 49.128907 1.878907 1.570312 4.160157 2.339843 6.433594 2.339843 2.871094 0 5.71875-1.226562 7.707031-3.597656 3.554688-4.253906 2.992188-10.585937-1.261718-14.144531-11.078126-9.265625-7.964844-24.46875-5.78125-31.351563 9.066406-1.109374 18.378906-5.039062 27.824218-11.785156zm0 0"/><path d="m166.761719 192.5625c-.695313-5.5-5.71875-9.386719-11.222657-8.695312-5.5.695312-9.394531 5.722656-8.695312 11.222656 1.742188 13.738281-9.035156 23.738281-15.417969 28.375-16.066406-7.953125-34.058593-4.921875-34.953125-4.765625-5.441406.960937-9.0625 6.140625-8.125 11.585937.9375 5.445313 6.125 9.105469 11.574219 8.195313.171875-.03125 17.117187-2.746094 27.257813 6.042969 5.789062 5.019531 8.589843 13.414062 8.320312 24.949218-.128906 5.542969 4.261719 10.140625 9.804688 10.269532.078124.003906.15625.003906.238281.003906 5.433593 0 9.902343-4.339844 10.03125-9.804688.316406-13.5-2.558594-24.609375-8.554688-33.171875 9.839844-8.167969 22.429688-23.011719 19.742188-44.207031zm0 0"/><path d="m72.355469 139.933594c-1.089844 2.609375-2.746094 4.945312-4.835938 7.070312-5.445312 5.550782-12.28125 7.613282-12.539062 7.691406-5.3125 1.472657-8.449219 6.957032-7.011719 12.289063 1.207031 4.476563 5.261719 7.425781 9.683594 7.425781.867187 0 1.746094-.113281 2.625-.351562.632812-.171875 13.242187-3.691406 22.980468-14.519532 6.703126 4.976563 14.578126 7.574219 23.207032 7.574219 2.402344 0 4.859375-.199219 7.367187-.605469 11.375-1.832031 19.894531-7.195312 20.828125-7.800781 4.652344-3.015625 5.980469-9.230469 2.964844-13.882812-3.015625-4.652344-9.230469-5.980469-13.886719-2.964844-.054687.035156-5.898437 3.664063-13.097656 4.828125-7.234375 1.167969-12.945313-.480469-17.652344-5.152344 2.273438-8.652344 2-18.292968-.855469-28.804687-1.449218-5.351563-6.960937-8.511719-12.316406-7.058594-5.351562 1.453125-8.511718 6.964844-7.058594 12.316406 2.304688 8.5 2.242188 15.609375-.214843 21.507813-.0625.144531-.125.289062-.1875.4375zm0 0"/><path d="m307.292969 54.535156c-16.957031-10.058594-36.445313-4.863281-37.265625-4.636718-5.34375 1.472656-8.484375 7-7.011719 12.34375 1.46875 5.34375 7.003906 8.480468 12.34375 7.015624.117187-.035156 12.148437-3.117187 21.6875 2.542969 5.675781 3.367188 9.59375 9.511719 11.652344 18.257813 1.089843 4.625 5.210937 7.742187 9.765625 7.742187.761718 0 1.53125-.089843 2.304687-.269531 5.398438-1.269531 8.746094-6.675781 7.472657-12.070312-3.355469-14.261719-10.402344-24.667969-20.949219-30.925782zm0 0"/><path d="m270.925781 243.816406c-7.152343 12.289063-17.488281 18.871094-30.714843 19.5625-10.625.550782-19.382813-2.875-19.597657-2.964844-5.117187-2.09375-10.960937.34375-13.074219 5.453126-2.121093 5.125.3125 10.996093 5.433594 13.113281 1.179688.488281 11.367188 4.539062 24.851563 4.539062.828125 0 1.671875-.015625 2.527343-.050781 14.332032-.542969 34.285157-6.113281 47.929688-29.554688 2.789062-4.789062 1.164062-10.9375-3.628906-13.726562-4.789063-2.789062-10.9375-1.164062-13.726563 3.628906zm0 0"/><path d="m343.617188 302.695312c-2.371094-3.535156-6.808594-5.230468-10.949219-4.113281-4.003907 1.074219-6.96875 4.585938-7.390625 8.707031-.425782 4.164063 1.921875 8.277344 5.699218 10.054688 3.683594 1.730469 8.175782 1.054688 11.148438-1.742188 3.554688-3.339843 4.195312-8.867187 1.492188-12.90625zm0 0"/><path d="m222.1875 13.855469c1.59375 3.859375 5.582031 6.390625 9.75 6.191406 4.082031-.199219 7.707031-2.9375 9.019531-6.804687 1.332031-3.910157.0625-8.355469-3.128906-10.980469-3.371094-2.773438-8.308594-3.023438-11.9375-.59375-3.925781 2.628906-5.511719 7.808593-3.703125 12.1875zm0 0"/></svg>