<?xml version="1.0" encoding="UTF-8" standalone="no"?>
<!-- Created with Inkscape (http://www.inkscape.org/) -->

<svg
   xmlns:dc="http://purl.org/dc/elements/1.1/"
   xmlns:cc="http://creativecommons.org/ns#"
   xmlns:rdf="http://www.w3.org/1999/02/22-rdf-syntax-ns#"
   xmlns:svg="http://www.w3.org/2000/svg"
   xmlns="http://www.w3.org/2000/svg"
   xmlns:sodipodi="http://sodipodi.sourceforge.net/DTD/sodipodi-0.dtd"
   xmlns:inkscape="http://www.inkscape.org/namespaces/inkscape"
   width="1000.0004"
   height="283.0845"
   id="svg4322"
   version="1.1"
   inkscape:version="0.48.2 r9819"
   sodipodi:docname="New document 3">
  <defs
     id="defs4324" />
  <sodipodi:namedview
     id="base"
     pagecolor="#ffffff"
     bordercolor="#666666"
     borderopacity="1.0"
     inkscape:pageopacity="0.0"
     inkscape:pageshadow="2"
     inkscape:zoom="0.35355339"
     inkscape:cx="1307.3562"
     inkscape:cy="363.62911"
     inkscape:document-units="px"
     inkscape:current-layer="layer1"
     showgrid="false"
     fit-margin-left="0.5"
     fit-margin-bottom="0.5"
     fit-margin-top="0.5"
     fit-margin-right="0.5"
     inkscape:window-width="1289"
     inkscape:window-height="1039"
     inkscape:window-x="627"
     inkscape:window-y="-21"
     inkscape:window-maximized="0">
    <inkscape:grid
       type="xygrid"
       id="grid4341"
       empspacing="5"
       visible="true"
       enabled="true"
       snapvisiblegridlinesonly="true" />
  </sodipodi:namedview>
  <metadata
     id="metadata4327">
    <rdf:RDF>
      <cc:Work
         rdf:about="">
        <dc:format>image/svg+xml</dc:format>
        <dc:type
           rdf:resource="http://purl.org/dc/dcmitype/StillImage" />
        <dc:title></dc:title>
      </cc:Work>
    </rdf:RDF>
  </metadata>
  <g
     inkscape:label="Layer 1"
     inkscape:groupmode="layer"
     id="layer1"
     transform="translate(1239.9375,-1935.853)">
    <path
       style="fill:none;stroke:#000000;stroke-width:0.25;stroke-linecap:butt;stroke-linejoin:miter;stroke-opacity:1"
       d="m -17.589286,-596.38782 c -8.358283,0 -28.839286,-6.28527 -28.839286,-31.78572 0,-35.64235 37.2486206,-76.21817 48.8276843,-88.74647 l 29.5469617,-31.18845 0,31.06219 c 0,103.0647 -27.4681826,120.65845 -49.53536,120.65845 z"
       id="path4356"
       inkscape:connector-curvature="0"
       sodipodi:nodetypes="cccccc" />
    <path
       style="fill:none;stroke:#000000;stroke-width:0.25;stroke-linecap:butt;stroke-linejoin:miter;stroke-opacity:1"
       d="m 395.72726,-899.12627 c 0,-60.13724 15.91001,-113.13713 50.00255,-113.13713 20.0553,0 40.4061,18.31728 40.4061,83.21136 0,81.70794 -29.76587,119.70308 -52.6542,119.70308 -21.4595,0 -37.75445,-30.28349 -37.75445,-89.77731 z"
       id="path4358"
       inkscape:connector-curvature="0"
       sodipodi:nodetypes="ccccc" />
    <g
       id="g4398"
       transform="translate(-1357.7384,-491.14632)" />
    <path
       id="path4406"
       style="fill:none;stroke:#000000;stroke-width:0.14483047;stroke-linecap:butt;stroke-linejoin:miter;stroke-opacity:1"
       d="m -1136.0099,-721.04653 c -4.4941,0 -6.8186,-1.38537 -6.8186,-6.81853 0,-12.36436 15.1297,-33.24944 15.1297,-85.7681 l 2.2955,-335.97054 c 0,-6.1168 -0.6013,-8.0813 -3.0305,-8.0813 -2.4465,0 -10.6289,8.4014 -14.2482,12.2969 -19.6387,21.5265 -43.3305,68.5762 -43.3305,119.9068 0,24.621 4.0297,42.87115 16.5413,61.99816 3.0214,4.09702 6.0609,8.08826 6.0609,12.87945 0,6.11302 -3.8296,8.46002 -8.3338,8.46002 -13.6636,0 -67.6802,-23.98275 -67.6802,-87.50443 0,-44.7021 30.9052,-100.3971 65.0286,-130.6885 15.5202,-14.3228 41.8307,-35.8604 62.1244,-35.8604 15.757,0 27.9013,5.3802 38.512,12.1218 7.2618,4.714 9.4071,8.015 9.4071,15.6574 l 0,282.33761 c 0,72.41821 -4.5497,97.51935 -23.1704,129.67833 -6.0038,9.45341 -27.2182,35.35533 -48.4873,35.35533 z M -26.529195,-808.8515 c 28.4684672,0 51.909278,-44.88356 51.909278,-123.73607 0,-52.30696 -11.580827,-79.29693 -37.754452,-79.29693 -39.888346,0 -52.125631,76.96663 -52.125631,114.49668 -1.100801,58.69184 19.797039,88.53632 37.970805,88.53632 z M -120.25,-855.13782 c -11.72589,-84.33893 12.17713,-203.08748 90.053926,-203.08748 28.5746375,0 47.114948,17.8266 55.576157,32.83 -0.991812,-9.8863 -2.203597,-23.1073 16.28871,-23.1073 12.75997,0 22.878835,3.0853 29.091045,5.7689 11.747924,4.5586 13.335362,8.3092 13.335362,14.3079 l -2.651651,184.47911 c 31.502721,-45.56387 52.889601,-86.32808 66.038721,-141.16881 -10.12897,-6.60885 -17.80394,-18.9082 -17.80394,-32.1986 0,-29.6101 17.86068,-46.9721 42.17387,-46.9721 19.8907,0 27.90547,10.6966 27.90547,27.7792 0.15567,7.1682 -2.02031,16.2887 -2.02031,16.2887 19.13766,-2.7816 56.47712,-11.238 66.5438,-11.238 20.08889,0 31.441,10.9633 31.441,28.2843 0,14.89764 -18.56155,69.83455 -18.56155,118.56667 0,48.58839 12.62049,76.64533 32.45115,76.64533 15.71858,0 27.10576,-17.76185 31.94607,-39.52222 0,0 -6.33517,-26.0557 -5.80838,-52.27539 0,-93.49925 40.32746,-157.83629 93.81792,-157.83629 26.6454,0 41.73409,11.2855 56.82108,31.6935 -2.77792,-15.7748 1.9344,-22.3496 15.65737,-22.3496 10.93276,0 19.46938,1.6864 30.22645,5.9598 7.52328,3.3288 12.70503,6.631 12.70503,14.4958 l -3.283,124.50125 c 0,76.61097 8.42904,94.95434 26.51651,94.95434 22.03924,0 37.58414,-48.49475 41.41625,-68.81664 l 1.07485,-165.97935 c 0,-4.9022 3.10731,-9.4139 8.79329,-9.4139 7.81378,0 17.01266,2.069 36.8283,6.6208 7.99169,1.6043 10.75888,7.5517 10.75888,12.1037 l -0.20694,97.34676 c 14.51051,-42.53772 24.17551,-76.24576 38.17321,-102.10546 4.42479,-8.0151 7.09002,-14.0692 19.44864,-14.0692 9.95449,0 18.11876,2.4884 27.97446,6.5779 20.2856,8.8593 22.61273,22.551 22.61273,32.1124 -0.0436,31.63576 1.84086,78.50171 5.48289,117.41615 0.13178,1.85046 1.92149,1.55461 2.17244,0.10346 7.00998,-55.02741 33.14498,-122.71321 40.96634,-139.96831 4.16481,-9.6079 9.75543,-16.1382 21.31076,-16.1382 12.46058,0 32.82078,8.7161 40.86287,13.3451 11.97811,6.8516 15.2072,16.1335 15.2072,23.8969 l -3.00002,93.82953 c 0,36.46066 1.00461,80.16146 13.47589,99.17486 2.83544,4.74853 7.78383,12.43555 17.55612,12.43555 8.31176,0 15.34038,-7.25323 20.0432,-19.67749 4.91527,-13.01793 7.5174,-24.28464 10.68734,-37.44474 1.30237,-6.07698 4.56047,-10.10303 10.01428,-10.10303 9.94619,0 9.87529,9.87842 9.87529,15.94681 0,15.67629 -7.03669,43.3411 -14.55692,57.7157 -9.22958,18.49676 -27.90414,29.99167 -48.49874,29.99167 -11.08399,0 -19.7335,-3.30973 -25.89528,-6.72981 -40.25297,-24.47201 -46.08476,-75.37122 -46.08476,-155.95675 l 1.19287,-49.07814 c 0.0517,-1.72983 -1.59052,-1.62385 -2.17246,-0.3104 -21.26741,44.32515 -42.51809,110.25332 -42.51809,178.34843 0.14518,3.83255 -1.03212,5.90195 -3.41383,7.75874 -2.35436,1.99119 -11.53904,5.17253 -19.03489,5.17253 -15.97868,0 -26.66288,-8.10901 -33.56962,-19.24177 -13.99062,-23.33989 -17.55426,-113.49234 -19.81071,-166.76188 -0.14658,-3.11709 -3.60357,-3.8139 -5.01734,-1.24146 -15.7162,24.8963 -27.11881,60.67388 -34.669,92.27542 -7.11123,31.74783 -7.84911,71.29113 -7.84911,96.31452 0,15.17013 -5.03118,19.96593 -28.24194,19.96593 -8.89931,0 -18.8169,-2.14402 -30.10406,-6.41391 -3.43561,-1.25273 -7.28573,-4.30094 -7.60359,-9.10363 -0.27018,-9.28518 -0.62765,-19.19292 -0.87559,-28.47874 -12.11169,28.86308 -27.49011,44.18783 -54.04316,44.18783 -35.54133,0 -57.65373,-28.98382 -60.35661,-55.30585 -17.8324,34.73703 -47.04273,55.43212 -81.19102,55.43212 -27.45203,0 -48.8489,-13.18712 -63.38707,-41.54253 -6.16498,16.11926 -25.60677,41.6688 -56.56854,41.6688 -15.83231,0 -30.87179,-5.27541 -45.99415,-20.93145 -17.39522,-18.68649 -29.51475,-41.55635 -29.51475,-94.09967 0,-31.80395 5.82681,-63.72538 12.50063,-91.92389 1.02246,-4.2874 1.38888,-7.19205 -5.96528,-6.6986 l -37.97635,1.0165 c -17.42988,53.77048 -56.55245,129.7492 -106.571095,184.73164 l 1.641498,69.57426 c 0,46.25393 -7.064707,93.58931 -23.786256,118.69684 -13.286966,19.4062 -37.52009,42.54876 -74.072272,42.54876 -35.165267,0 -75.130095,-24.34949 -75.130095,-66.67007 0,-33.27285 22.898566,-63.3036 44.446712,-84.22147 l 74.246212,-68.43783 -0.883884,-27.52666 c -7.94957,18.91442 -41.226294,44.95179 -69.321718,44.95179 -50.017466,0 -67.308152,-46.51118 -67.308152,-46.51118 -13.34913,28.15597 -33.67738,45.24849 -55.98774,45.24849 -35.5413,0 -57.6537,-28.98382 -60.3566,-55.30585 -17.8324,34.73703 -47.0427,55.43212 -81.191,55.43212 -27.4521,0 -49.55601,-13.01034 -64.09421,-41.36575 -10.563,-21.71548 -11.91794,-32.30457 -11.91794,-32.30457 -13.90635,40.82541 -44.50503,74.241 -70.96068,74.241 -40.33194,0 -66.18952,-37.89509 -70.6249,-102.79564 -23.16862,54.68149 -61.76672,104.03308 -133.71894,104.03308 -48.74344,0 -75.88771,-17.60229 -75.88771,-30.05204 0,-13.18279 15.42013,-36.41599 27.4509,-36.41599 14.48933,0 28.19088,22.62741 49.64899,22.62741 17.16435,0 28.46105,-17.46593 28.46105,-35.33009 0,-28.74318 -24.97355,-52.35895 -60.73542,-82.8325 l -55.17958,92.30268 c -17.20608,27.83554 -48.72134,69.06919 -80.81221,69.06919 -32.70091,0 -42.80521,-34.29168 -42.80521,-100.00511 0,-36.94768 5.68211,-127.27922 5.68211,-127.27922 0.59032,-5.53799 -2.30695,-6.93379 -6.06092,-3.03049 -35.98448,40.2365 -56.86152,93.03255 -74.47349,159.78092 -6.02286,22.61125 -10.47192,45.13698 -10.9349,54.44722 -0.33346,14.07529 -5.74905,16.08668 -22.67793,16.08668 -30.57804,0 -37.04904,-8.61586 -37.04904,-60.1472 l 0.1785,-57.15677 1.3258,-148.16415 c 0,-10.4842 1.1997,-14.7861 11.17481,-14.7861 11.93589,0 25.39396,4.4562 34.53459,8.3338 7.04715,2.9949 9.29772,6.4109 8.90197,15.2154 l -1.28795,123.5164 c 11.61373,-35.88905 19.82423,-60.64116 35.04228,-89.98947 14.70724,-28.31823 36.16612,-57.26553 67.63973,-57.26553 14.15677,0 27.91388,9.9658 39.04239,17.0968 12.09309,8.4264 13.61181,17.0211 13.61181,26.3398 -1.38896,40.65861 -4.16688,83.01892 -4.16688,121.97589 0,46.88843 3.60632,59.09393 11.36422,59.09393 10.51626,0 28.27585,-27.62635 38.78985,-45.65889 13.91419,-23.54498 32.6657,-56.63589 45.91144,-81.77186 -9.59613,-9.76481 -15.88465,-22.53452 -15.88465,-36.71904 0,-38.91483 33.22035,-65.15483 61.87184,-65.15483 20.29764,0 31.18846,7.3063 31.18846,24.6225 0,22.3337 -19.5326,48.7868 -31.06219,62.12434 l 55.00281,41.36575 c 22.53018,16.84347 39.4212,40.63406 39.4212,66.89735 0.14432,9.27994 -2.47487,18.11961 -2.47487,18.11961 30.40059,-29.28851 47.55293,-64.51121 47.55293,-91.65872 l 0.17678,-127.98633 -60.98796,-1.7678 c -4.0046,0 -8.48529,-1.0474 -8.48529,-10.9601 0,-12.1699 2.62468,-19.4812 7.6014,-28.8146 1.55478,-3.1249 3.16517,-4.2467 6.71752,-4.1543 l 58.60147,2.033 2.20971,-66.9984 c 0.47109,-16.1794 4.75787,-21.39 14.76085,-21.39 11.27237,0 29.05031,5.4677 43.57546,11.1369 4.81435,2.1526 7.46966,5.0455 7.24784,9.4576 l -3.18198,69.8268 74.95332,4.5078 c 9.70462,0.5438 11.22532,3.3035 11.22532,10.8718 0,8.3877 -1.67157,13.0565 -5.12652,20.0641 -1.33112,2.4167 -3.39131,6.3306 -6.98268,6.364 l -75.21848,1.2374 c 0,0 -5.24196,130.284 -5.30331,168.5566 0,56.14951 12.7771,78.1353 24.74874,78.1353 21.54966,0 52.27362,-54.46597 52.27362,-90.15859 0,-93.49925 40.85773,-152.35621 94.34823,-152.35621 26.6454,0 41.7341,11.2855 56.8211,31.6935 -2.7779,-15.7748 1.9344,-22.3496 15.6574,-22.3496 10.9327,0 19.4693,1.6864 30.2264,5.9598 7.5233,3.3288 12.705,6.631 12.705,14.4958 l -3.283,124.50125 c 0,76.61097 8.4291,94.95434 26.5165,94.95434 22.6811,0 32.71917,-36.51634 32.71917,-46.79901 z"
       inkscape:connector-curvature="0"
       sodipodi:nodetypes="ssccscscssscscsscsssscscccsccccssccssssccscscccsccsccccscccccsccccsccsscsccccccsccccsscccscscscsccccccsscccccscsccscsssssccssccccscccsccccsccssccssscccccccsccccsccccsccccssscsccccc" />
    <path
       sodipodi:nodetypes="ccccc"
       inkscape:connector-curvature="0"
       id="path4408"
       d="m -326.52274,-899.12627 c 0,-60.13724 15.91001,-113.13713 50.00255,-113.13713 20.0553,0 40.4061,18.31728 40.4061,83.21136 0,81.70794 -29.76587,119.70308 -52.6542,119.70308 -21.4595,0 -37.75445,-30.28349 -37.75445,-89.77731 z"
       style="fill:none;stroke:#000000;stroke-width:0.25;stroke-linecap:butt;stroke-linejoin:miter;stroke-opacity:1" />
    <path
       style="fill:#3f5d87;fill-opacity:1;stroke:none"
       d="m -1182.1962,1936.353 c -9.1356,0 -20.98,9.688 -27.9665,16.1356 -15.3613,13.6361 -29.2748,38.7076 -29.2748,58.8309 0,28.5952 24.3197,39.3894 30.4705,39.3894 2.0277,0 3.7561,-1.0464 3.7561,-3.7983 0,-2.1567 -1.3689,-3.9515 -2.7292,-5.7958 -5.6321,-8.6103 -7.4417,-16.8267 -7.4417,-27.9102 0,-23.1073 10.6571,-44.2871 19.4977,-53.9776 1.6293,-1.7536 5.3136,-5.5426 6.4149,-5.5426 1.0935,0 1.3646,0.8899 1.3646,3.6435 l -1.027,151.2413 c 0,23.642 -6.8228,33.0356 -6.8228,38.6016 0,2.4458 1.0577,3.0808 3.0808,3.0808 9.5746,0 19.1162,-11.669 21.819,-15.9246 8.3822,-14.4768 10.4381,-25.7806 10.4381,-58.3807 l 0,-127.0872 c 0,-3.4403 -0.9653,-4.9258 -4.2343,-7.0478 -4.7766,-3.0349 -10.2523,-5.4583 -17.3454,-5.4583 z m 273.74233,0.422 c -4.50298,0 -6.42786,2.353 -6.63993,9.6364 l -0.9988,30.161 -26.37684,-0.9144 c -1.59914,-0.041 -2.32464,0.4643 -3.02454,1.871 -2.24035,4.2016 -3.41844,7.4919 -3.41844,12.9704 0,4.4623 2.02367,4.9377 3.8264,4.9377 l 27.44598,0.7878 -0.0844,57.6211 c 0,12.2209 -7.71161,28.0758 -21.39689,41.2604 0,0 1.17631,-3.9817 1.11135,-8.1592 0,-11.8228 -7.61108,-22.5365 -17.75338,-30.1188 l -24.75906,-18.6256 c 5.19022,-6.0041 13.98324,-17.9127 13.98324,-27.9665 0,-7.7951 -4.90223,-11.0713 -14.03951,-11.0713 -12.89789,0 -27.85391,11.813 -27.85391,29.3311 0,6.3854 2.8406,12.1337 7.1604,16.5295 -5.9628,11.3153 -14.4017,26.2019 -20.6654,36.8009 -4.733,8.1177 -12.738,20.5529 -17.472,20.5529 -3.4923,0 -5.1066,-5.4944 -5.1066,-26.6019 0,-17.5371 1.2458,-36.603 1.871,-54.9061 0,-4.1949 -0.6896,-8.0657 -6.1335,-11.859 -5.0096,-3.2101 -11.1976,-7.695 -17.5705,-7.695 -14.1683,0 -23.8217,13.0381 -30.4423,25.786 -6.8507,13.2116 -10.5559,24.3448 -15.7839,40.5008 l 0.5767,-55.5954 c 0.1782,-3.9635 -0.8228,-5.5027 -3.9952,-6.8509 -4.1148,-1.7456 -10.1716,-3.7561 -15.5447,-3.7561 -4.4905,0 -5.0363,1.9344 -5.0363,6.654 l -0.6048,66.7088 -0.07,25.7297 c 0,23.1976 2.905,27.0662 16.6702,27.0662 7.6207,0 10.063,-0.8946 10.2131,-7.2308 0.2084,-4.1911 2.2124,-14.3411 4.9237,-24.5199 7.9282,-30.0477 17.3242,-53.8148 33.5232,-71.9279 1.6899,-1.7571 2.9948,-1.1284 2.7291,1.3646 0,0 -2.5603,40.665 -2.5603,57.2975 0,29.5819 4.5519,45.0165 19.2726,45.0165 14.4462,0 28.6334,-18.559 36.379,-31.0895 l 24.84347,-41.5558 c 16.09873,13.718 27.33344,24.3541 27.33344,37.2933 0,8.0418 -5.07478,15.9105 -12.80156,15.9105 -9.65969,0 -15.83091,-10.185 -22.3535,-10.185 -5.41585,0 -12.36545,10.4544 -12.36545,16.3888 0,5.6045 12.22773,13.5331 34.17031,13.5331 32.39035,0 49.76577,-22.2296 60.19547,-46.8453 1.99665,29.216 13.63686,46.2826 31.79288,46.2826 11.9094,0 25.67342,-15.0465 31.93356,-33.4248 0,0 0.61876,4.7705 5.37385,14.546 6.54458,12.7646 16.49478,18.6256 28.85274,18.6256 15.37236,0 28.52024,-9.3186 36.54775,-24.956 1.21675,11.8492 11.16519,24.8997 27.16463,24.8997 10.04334,0 19.19992,-7.6951 25.20923,-20.37 0,0 7.78561,20.9327 30.30171,20.9327 12.64757,0 27.62343,-11.7146 31.20205,-20.2293 l 0.39389,12.3796 -33.41066,30.8081 c -9.70022,9.4165 -20.01827,22.9481 -20.01827,37.9264 0,19.0512 17.98847,30.0063 33.81863,30.0063 16.45451,0 27.37307,-10.4242 33.3544,-19.1601 7.52745,-11.3025 10.70548,-32.6071 10.70548,-53.429 l -0.74559,-31.3146 c 22.51663,-24.7511 40.13843,-58.9623 47.98475,-83.1679 l 17.09219,-0.4502 c 3.31059,-0.2221 3.1472,1.0805 2.68692,3.0105 -3.00431,12.694 -5.62706,27.07 -5.62706,41.387 0,23.6532 5.44915,33.9458 13.27986,42.3577 6.80756,7.0478 13.58044,9.4253 20.70758,9.4253 13.9379,0 22.68719,-11.5099 25.46245,-18.7662 6.54457,12.7646 16.18532,18.71 28.54326,18.71 15.37235,0 28.52023,-9.3186 36.54775,-24.956 1.21674,11.8492 11.16517,24.8997 27.16463,24.8997 11.95324,0 18.88477,-6.8985 24.33703,-19.8917 0.11161,4.1802 0.27227,8.6358 0.39389,12.8157 0.14309,2.162 1.87185,3.5297 3.41844,4.0937 5.08108,1.9221 9.54099,2.8838 13.54715,2.8838 10.44866,0 12.71715,-2.1461 12.71715,-8.9751 0,-11.2647 0.32976,-29.0648 3.53098,-43.3565 3.39883,-14.2259 8.52614,-30.3344 15.60102,-41.5418 0.63643,-1.158 2.19891,-0.8545 2.26489,0.5487 1.01578,23.98 2.62081,64.5722 8.91889,75.079 3.10917,5.0116 7.91562,8.6657 15.10866,8.6657 3.37437,0 7.50735,-1.4389 8.5672,-2.3353 1.07216,-0.8358 1.61279,-1.7635 1.54744,-3.4888 0,-30.654 9.55816,-60.3304 19.132,-80.284 0.26197,-0.5913 1.00801,-0.638 0.98473,0.1407 l -0.53457,22.0862 c 0,36.2767 2.61525,59.1952 20.73572,70.2116 2.77381,1.5396 6.67246,3.0246 11.66208,3.0246 9.27096,0 17.67816,-5.1784 21.83299,-13.505 3.38534,-6.4709 6.55552,-18.926 6.55552,-25.983 0,-2.7317 0.0321,-7.1745 -4.44537,-7.1745 -2.45512,0 -3.92944,1.8083 -4.51572,4.5439 -1.42699,5.9242 -2.59845,11.0069 -4.81113,16.8671 -2.11705,5.593 -5.27571,8.8486 -9.01737,8.8486 -4.39914,0 -6.6296,-3.4613 -7.90602,-5.5989 -5.61413,-8.5592 -6.06315,-28.2234 -6.06315,-44.6367 l 1.35049,-42.2451 c 0,-3.4948 -1.45882,-7.6775 -6.85094,-10.7618 -3.62027,-2.0838 -12.77711,-6.0069 -18.38642,-6.0069 -5.2018,0 -7.71928,2.9478 -9.59414,7.273 -3.5209,7.7676 -15.28704,38.2376 -18.44268,63.009 -0.11297,0.6532 -0.92542,0.7908 -0.98474,-0.042 -1.63951,-17.5179 -2.48146,-38.6249 -2.46184,-52.8662 0,-4.3042 -1.05311,-10.4594 -10.18497,-14.4475 -4.43669,-1.8409 -8.10939,-2.9683 -12.59055,-2.9683 -5.56341,0 -6.75819,2.7223 -8.75008,6.3305 -6.30127,11.6411 -10.65854,26.8241 -17.19066,45.973 l 0.0985,-43.8207 c 0,-2.0491 -1.25576,-4.736 -4.85334,-5.4582 -8.9203,-2.0491 -13.0542,-2.9824 -16.57169,-2.9824 -2.55963,0 -3.96708,2.0417 -3.96708,4.2485 l -0.4783,74.7132 c -1.72508,9.1482 -8.71834,30.977 -18.63963,30.977 -8.14234,0 -11.94343,-8.25 -11.94343,-42.7375 l 1.4771,-56.0455 c 0,-3.5405 -2.32475,-5.0289 -5.71147,-6.5274 -4.84245,-1.9238 -8.69594,-2.6869 -13.61748,-2.6869 -6.1776,0 -8.29841,2.9571 -7.04789,10.0583 -6.79163,-9.1869 -13.58017,-14.2646 -25.57499,-14.2646 -24.07952,0 -42.23108,28.9656 -42.23108,71.0557 -0.23714,11.8032 2.61659,23.5352 2.61659,23.5352 -2.17894,9.7958 -7.30119,17.7815 -14.37714,17.7815 -8.92707,0 -14.61629,-12.6211 -14.61629,-34.4939 0,-21.9375 8.35618,-46.6803 8.35618,-53.3867 0,-7.7973 -5.10874,-12.7312 -14.15205,-12.7312 -4.53166,0 -21.33492,3.8121 -29.95002,5.0643 0,0 0.9704,-4.1023 0.90033,-7.3292 0,-7.69 -3.60832,-12.5062 -12.56241,-12.5062 -10.94495,0 -18.97726,7.8143 -18.97726,21.1437 0,5.9829 3.44478,11.5146 8.00449,14.4897 -5.91927,24.6874 -15.54353,43.0464 -29.72494,63.5577 l 1.19575,-83.0554 c 0,-2.7004 -0.71839,-4.3769 -6.00689,-6.429 -2.79652,-1.208 -7.35289,-2.6025 -13.09698,-2.6025 -8.32458,0 -7.77572,5.9455 -7.32924,10.396 -3.80894,-6.754 -12.14899,-14.771 -25.01228,-14.771 -35.05739,0 -45.82155,53.4592 -40.54297,91.4256 0,4.6289 -4.51859,21.0593 -14.72882,21.0593 -8.14231,0 -11.94344,-8.25 -11.94344,-42.7375 l 1.49117,-56.0455 c 0,-3.5405 -2.3388,-5.0289 -5.72553,-6.5274 -4.84247,-1.9238 -8.6819,-2.6869 -13.60342,-2.6869 -6.17761,0 -8.2984,2.9571 -7.04789,10.0583 -6.79163,-9.1869 -13.59423,-14.2646 -25.58905,-14.2646 -24.07954,0 -42.47023,26.4897 -42.47023,68.5798 0,16.0676 -13.83428,40.5852 -23.53518,40.5852 -5.38921,0 -11.12751,-9.8926 -11.12751,-35.1691 0.0276,-17.229 2.37744,-75.8809 2.37744,-75.8809 l 33.86083,-0.5486 c 1.6167,-0.015 2.55193,-1.7819 3.15115,-2.8698 1.5553,-3.1545 2.30709,-5.2556 2.30709,-9.0314 0,-3.407 -0.6816,-4.6507 -5.05028,-4.8955 l -33.74829,-2.0258 1.4349,-31.4412 c 0.0998,-1.9862 -1.09644,-3.2794 -3.2637,-4.2484 -6.53871,-2.5521 -14.54994,-5.0222 -19.62437,-5.0222 z m 102.48282,82.3802 c 9.02819,0 18.18947,8.235 18.18947,37.4481 0,36.782 -13.40046,53.8931 -23.70398,53.8931 -9.66031,0 -16.99372,-13.6343 -16.99372,-40.4163 0,-27.0717 7.16097,-50.9249 22.50823,-50.9249 z m 325.1315,0 c 9.02819,0 18.18947,8.235 18.18947,37.4481 0,36.782 -13.40047,53.8931 -23.70399,53.8931 -9.66031,0 -16.99372,-13.6343 -16.99372,-40.4163 0,-27.0717 7.16098,-50.9249 22.50824,-50.9249 z m -206.21766,0.1688 c 11.78244,0 16.99372,12.1429 16.99372,35.6896 0,35.4967 -10.55087,55.7079 -23.36637,55.7079 -8.18119,0 -17.58773,-13.4327 -17.09219,-39.8536 0,-16.8948 5.50851,-51.5439 23.46484,-51.5439 z m 19.94792,118.745 0,13.9832 c 0,46.3961 -12.36335,54.3153 -22.29722,54.3153 -3.7626,0 -12.98444,-2.8415 -12.98444,-14.3209 0,-16.045 16.77525,-34.2983 21.98774,-39.9381 l 13.29392,-14.0395 z"
       id="path4428"
       inkscape:connector-curvature="0" />
  </g>
</svg>
