<?xml version="1.0" encoding="UTF-8" standalone="no"?>
<!DOCTYPE svg PUBLIC "-//W3C//DTD SVG 1.1//EN"
 "http://www.w3.org/Graphics/SVG/1.1/DTD/svg11.dtd">
<!-- Generated by graphviz version 2.38.0 (20140413.2041)
 -->
<!-- Title: controllers_diagram Pages: 1 -->
<svg width="536pt" height="469pt"
 viewBox="0.00 0.00 535.51 469.00" xmlns="http://www.w3.org/2000/svg" xmlns:xlink="http://www.w3.org/1999/xlink">
<g id="graph0" class="graph" transform="scale(1 1) rotate(0) translate(195.821 273.5)">
<title>controllers_diagram</title>
<polygon fill="none" stroke="none" points="-195.821,195.5 -195.821,-273.5 339.688,-273.5 339.688,195.5 -195.821,195.5"/>
<!-- _diagram_info -->
<g id="node1" class="node"><title>_diagram_info</title>
<text text-anchor="start" x="136.312" y="68.9" font-family="Times,serif" font-size="13.00">Controllers diagram</text>
<text text-anchor="start" x="136.312" y="81.9" font-family="Times,serif" font-size="13.00">Date: Jul 18 2016 &#45; 15:50</text>
<text text-anchor="start" x="136.312" y="94.9" font-family="Times,serif" font-size="13.00">Migration version: 20160717205744</text>
<text text-anchor="start" x="136.312" y="107.9" font-family="Times,serif" font-size="13.00">Generated by RailRoady 1.5.1</text>
<text text-anchor="start" x="136.312" y="120.9" font-family="Times,serif" font-size="13.00">http://railroady.prestonlee.com</text>
</g>
<!-- ApplicationController -->
<g id="node2" class="node"><title>ApplicationController</title>
<path fill="none" stroke="black" d="M-179.821,191C-179.821,191 -64.1792,191 -64.1792,191 -58.1792,191 -52.1792,185 -52.1792,179 -52.1792,179 -52.1792,111 -52.1792,111 -52.1792,105 -58.1792,99 -64.1792,99 -64.1792,99 -179.821,99 -179.821,99 -185.821,99 -191.821,105 -191.821,111 -191.821,111 -191.821,179 -191.821,179 -191.821,185 -185.821,191 -179.821,191"/>
<text text-anchor="middle" x="-122" y="114.2" font-family="Times,serif" font-size="14.00">ApplicationController</text>
<polyline fill="none" stroke="black" points="-191.821,121 -52.1792,121 "/>
<polyline fill="none" stroke="black" points="-191.821,145 -52.1792,145 "/>
<polyline fill="none" stroke="black" points="-191.821,169 -52.1792,169 "/>
<text text-anchor="start" x="-183.821" y="184.2" font-family="Times,serif" font-size="14.00">_layout</text>
</g>
<!-- CommentsController -->
<g id="node3" class="node"><title>CommentsController</title>
<path fill="none" stroke="black" d="M-68.1069,-81C-68.1069,-81 42.1069,-81 42.1069,-81 48.1069,-81 54.1069,-87 54.1069,-93 54.1069,-93 54.1069,-187 54.1069,-187 54.1069,-193 48.1069,-199 42.1069,-199 42.1069,-199 -68.1069,-199 -68.1069,-199 -74.1069,-199 -80.1069,-193 -80.1069,-187 -80.1069,-187 -80.1069,-93 -80.1069,-93 -80.1069,-87 -74.1069,-81 -68.1069,-81"/>
<text text-anchor="middle" x="-13" y="-183.8" font-family="Times,serif" font-size="14.00">CommentsController</text>
<polyline fill="none" stroke="black" points="-80.1069,-177 54.1069,-177 "/>
<text text-anchor="start" x="-72.1069" y="-161.8" font-family="Times,serif" font-size="14.00">create</text>
<text text-anchor="start" x="-72.1069" y="-147.8" font-family="Times,serif" font-size="14.00">new</text>
<polyline fill="none" stroke="black" points="-80.1069,-141 54.1069,-141 "/>
<polyline fill="none" stroke="black" points="-80.1069,-117 54.1069,-117 "/>
<text text-anchor="start" x="-72.1069" y="-101.8" font-family="Times,serif" font-size="14.00">_layout</text>
<text text-anchor="start" x="-72.1069" y="-87.8" font-family="Times,serif" font-size="14.00">comment_params</text>
</g>
<!-- PostsController -->
<g id="node4" class="node"><title>PostsController</title>
<path fill="none" stroke="black" d="M92.4414,-81C92.4414,-81 171.559,-81 171.559,-81 177.559,-81 183.559,-87 183.559,-93 183.559,-93 183.559,-257 183.559,-257 183.559,-263 177.559,-269 171.559,-269 171.559,-269 92.4414,-269 92.4414,-269 86.4414,-269 80.4414,-263 80.4414,-257 80.4414,-257 80.4414,-93 80.4414,-93 80.4414,-87 86.4414,-81 92.4414,-81"/>
<text text-anchor="middle" x="132" y="-253.8" font-family="Times,serif" font-size="14.00">PostsController</text>
<polyline fill="none" stroke="black" points="80.4414,-247 183.559,-247 "/>
<text text-anchor="start" x="88.4414" y="-231.8" font-family="Times,serif" font-size="14.00">create</text>
<text text-anchor="start" x="88.4414" y="-217.8" font-family="Times,serif" font-size="14.00">destroy</text>
<text text-anchor="start" x="88.4414" y="-203.8" font-family="Times,serif" font-size="14.00">edit</text>
<text text-anchor="start" x="88.4414" y="-189.8" font-family="Times,serif" font-size="14.00">index</text>
<text text-anchor="start" x="88.4414" y="-175.8" font-family="Times,serif" font-size="14.00">new</text>
<text text-anchor="start" x="88.4414" y="-161.8" font-family="Times,serif" font-size="14.00">show</text>
<text text-anchor="start" x="88.4414" y="-147.8" font-family="Times,serif" font-size="14.00">update</text>
<polyline fill="none" stroke="black" points="80.4414,-141 183.559,-141 "/>
<polyline fill="none" stroke="black" points="80.4414,-117 183.559,-117 "/>
<text text-anchor="start" x="88.4414" y="-101.8" font-family="Times,serif" font-size="14.00">_layout</text>
<text text-anchor="start" x="88.4414" y="-87.8" font-family="Times,serif" font-size="14.00">post_params</text>
</g>
<!-- Users::OmniauthCallbacksController -->
<g id="node5" class="node"><title>Users::OmniauthCallbacksController</title>
<path fill="none" stroke="black" d="M-116.204,63C-116.204,63 84.2036,63 84.2036,63 90.2036,63 96.2036,57 96.2036,51 96.2036,51 96.2036,-29 96.2036,-29 96.2036,-35 90.2036,-41 84.2036,-41 84.2036,-41 -116.204,-41 -116.204,-41 -122.204,-41 -128.204,-35 -128.204,-29 -128.204,-29 -128.204,51 -128.204,51 -128.204,57 -122.204,63 -116.204,63"/>
<text text-anchor="middle" x="-16" y="-25.8" font-family="Times,serif" font-size="14.00">Users::OmniauthCallbacksController</text>
<polyline fill="none" stroke="black" points="-128.204,-19 96.2036,-19 "/>
<text text-anchor="start" x="-120.204" y="-3.8" font-family="Times,serif" font-size="14.00">facebook</text>
<text text-anchor="start" x="-120.204" y="10.2" font-family="Times,serif" font-size="14.00">failure</text>
<polyline fill="none" stroke="black" points="-128.204,17 96.2036,17 "/>
<polyline fill="none" stroke="black" points="-128.204,41 96.2036,41 "/>
<text text-anchor="start" x="-120.204" y="56.2" font-family="Times,serif" font-size="14.00">_layout</text>
</g>
</g>
</svg>
