<?xml version="1.0" encoding="UTF-8" standalone="no"?>
<!DOCTYPE svg PUBLIC "-//W3C//DTD SVG 1.1//EN"
 "http://www.w3.org/Graphics/SVG/1.1/DTD/svg11.dtd">
<!-- Generated by graphviz version 2.38.0 (20140413.2041)
 -->
<!-- Title: models_diagram Pages: 1 -->
<svg width="570pt" height="608pt"
 viewBox="0.00 0.00 570.15 608.00" xmlns="http://www.w3.org/2000/svg" xmlns:xlink="http://www.w3.org/1999/xlink">
<g id="graph0" class="graph" transform="scale(1 1) rotate(0) translate(4 604)">
<title>models_diagram</title>
<polygon fill="none" stroke="none" points="-4,4 -4,-604 566.154,-604 566.154,4 -4,4"/>
<!-- _diagram_info -->
<g id="node1" class="node"><title>_diagram_info</title>
<text text-anchor="start" x="8" y="-501.6" font-family="Times,serif" font-size="13.00">Models diagram</text>
<text text-anchor="start" x="8" y="-488.6" font-family="Times,serif" font-size="13.00">Date: Jul 18 2016 &#45; 15:50</text>
<text text-anchor="start" x="8" y="-475.6" font-family="Times,serif" font-size="13.00">Migration version: 20160717205744</text>
<text text-anchor="start" x="8" y="-462.6" font-family="Times,serif" font-size="13.00">Generated by RailRoady 1.5.1</text>
<text text-anchor="start" x="8" y="-449.6" font-family="Times,serif" font-size="13.00">http://railroady.prestonlee.com</text>
</g>
<!-- Comment -->
<g id="node2" class="node"><title>Comment</title>
<path fill="none" stroke="black" d="M182.825,-0.5C182.825,-0.5 406.55,-0.5 406.55,-0.5 412.55,-0.5 418.55,-6.5 418.55,-12.5 418.55,-12.5 418.55,-102.5 418.55,-102.5 418.55,-108.5 412.55,-114.5 406.55,-114.5 406.55,-114.5 182.825,-114.5 182.825,-114.5 176.825,-114.5 170.825,-108.5 170.825,-102.5 170.825,-102.5 170.825,-12.5 170.825,-12.5 170.825,-6.5 176.825,-0.5 182.825,-0.5"/>
<text text-anchor="middle" x="294.688" y="-99.3" font-family="Times,serif" font-size="14.00">Comment</text>
<polyline fill="none" stroke="black" points="170.825,-92.5 418.55,-92.5 "/>
<text text-anchor="start" x="178.825" y="-77.3" font-family="Times,serif" font-size="14.00">id :integer</text>
<text text-anchor="start" x="178.825" y="-63.3" font-family="Times,serif" font-size="14.00">comment :character varying</text>
<text text-anchor="start" x="178.825" y="-49.3" font-family="Times,serif" font-size="14.00">post_id :integer</text>
<text text-anchor="start" x="178.825" y="-35.3" font-family="Times,serif" font-size="14.00">user_id :integer</text>
<text text-anchor="start" x="178.825" y="-21.3" font-family="Times,serif" font-size="14.00">created_at :timestamp without time zone</text>
<text text-anchor="start" x="178.825" y="-7.3" font-family="Times,serif" font-size="14.00">updated_at :timestamp without time zone</text>
</g>
<!-- Post -->
<g id="node3" class="node"><title>Post</title>
<path fill="none" stroke="black" d="M285.222,-152.5C285.222,-152.5 550.154,-152.5 550.154,-152.5 556.154,-152.5 562.154,-158.5 562.154,-164.5 562.154,-164.5 562.154,-296.5 562.154,-296.5 562.154,-302.5 556.154,-308.5 550.154,-308.5 550.154,-308.5 285.222,-308.5 285.222,-308.5 279.222,-308.5 273.222,-302.5 273.222,-296.5 273.222,-296.5 273.222,-164.5 273.222,-164.5 273.222,-158.5 279.222,-152.5 285.222,-152.5"/>
<text text-anchor="middle" x="417.688" y="-293.3" font-family="Times,serif" font-size="14.00">Post</text>
<polyline fill="none" stroke="black" points="273.222,-286.5 562.154,-286.5 "/>
<text text-anchor="start" x="281.222" y="-271.3" font-family="Times,serif" font-size="14.00">id :integer</text>
<text text-anchor="start" x="281.222" y="-257.3" font-family="Times,serif" font-size="14.00">caption :character varying</text>
<text text-anchor="start" x="281.222" y="-243.3" font-family="Times,serif" font-size="14.00">created_at :timestamp without time zone</text>
<text text-anchor="start" x="281.222" y="-229.3" font-family="Times,serif" font-size="14.00">updated_at :timestamp without time zone</text>
<text text-anchor="start" x="281.222" y="-215.3" font-family="Times,serif" font-size="14.00">image_file_name :character varying</text>
<text text-anchor="start" x="281.222" y="-201.3" font-family="Times,serif" font-size="14.00">image_content_type :character varying</text>
<text text-anchor="start" x="281.222" y="-187.3" font-family="Times,serif" font-size="14.00">image_file_size :integer</text>
<text text-anchor="start" x="281.222" y="-173.3" font-family="Times,serif" font-size="14.00">image_updated_at :timestamp without time zone</text>
<text text-anchor="start" x="281.222" y="-159.3" font-family="Times,serif" font-size="14.00">user_id :integer</text>
</g>
<!-- Post&#45;&gt;Comment -->
<g id="edge1" class="edge"><title>Post&#45;&gt;Comment</title>
<path fill="none" stroke="#776c02" d="M357.248,-145.474C351.817,-137.924 346.376,-130.359 341.092,-123.014"/>
<ellipse fill="none" stroke="#776c02" cx="359.61" cy="-148.758" rx="4.00002" ry="4.00002"/>
<polygon fill="#776c02" stroke="#776c02" points="340.813,-122.625 338.626,-111.879 337.893,-118.566 334.973,-114.507 334.973,-114.507 334.973,-114.507 337.893,-118.566 331.32,-117.134 340.813,-122.625 340.813,-122.625"/>
</g>
<!-- User -->
<g id="node4" class="node"><title>User</title>
<path fill="none" stroke="black" d="M237.053,-359.5C237.053,-359.5 532.323,-359.5 532.323,-359.5 538.323,-359.5 544.323,-365.5 544.323,-371.5 544.323,-371.5 544.323,-587.5 544.323,-587.5 544.323,-593.5 538.323,-599.5 532.323,-599.5 532.323,-599.5 237.053,-599.5 237.053,-599.5 231.053,-599.5 225.053,-593.5 225.053,-587.5 225.053,-587.5 225.053,-371.5 225.053,-371.5 225.053,-365.5 231.053,-359.5 237.053,-359.5"/>
<text text-anchor="middle" x="384.688" y="-584.3" font-family="Times,serif" font-size="14.00">User</text>
<polyline fill="none" stroke="black" points="225.053,-577.5 544.323,-577.5 "/>
<text text-anchor="start" x="233.053" y="-562.3" font-family="Times,serif" font-size="14.00">id :integer</text>
<text text-anchor="start" x="233.053" y="-548.3" font-family="Times,serif" font-size="14.00">email :character varying</text>
<text text-anchor="start" x="233.053" y="-534.3" font-family="Times,serif" font-size="14.00">encrypted_password :character varying</text>
<text text-anchor="start" x="233.053" y="-520.3" font-family="Times,serif" font-size="14.00">reset_password_token :character varying</text>
<text text-anchor="start" x="233.053" y="-506.3" font-family="Times,serif" font-size="14.00">reset_password_sent_at :timestamp without time zone</text>
<text text-anchor="start" x="233.053" y="-492.3" font-family="Times,serif" font-size="14.00">remember_created_at :timestamp without time zone</text>
<text text-anchor="start" x="233.053" y="-478.3" font-family="Times,serif" font-size="14.00">sign_in_count :integer</text>
<text text-anchor="start" x="233.053" y="-464.3" font-family="Times,serif" font-size="14.00">current_sign_in_at :timestamp without time zone</text>
<text text-anchor="start" x="233.053" y="-450.3" font-family="Times,serif" font-size="14.00">last_sign_in_at :timestamp without time zone</text>
<text text-anchor="start" x="233.053" y="-436.3" font-family="Times,serif" font-size="14.00">current_sign_in_ip :inet</text>
<text text-anchor="start" x="233.053" y="-422.3" font-family="Times,serif" font-size="14.00">last_sign_in_ip :inet</text>
<text text-anchor="start" x="233.053" y="-408.3" font-family="Times,serif" font-size="14.00">created_at :timestamp without time zone</text>
<text text-anchor="start" x="233.053" y="-394.3" font-family="Times,serif" font-size="14.00">updated_at :timestamp without time zone</text>
<text text-anchor="start" x="233.053" y="-380.3" font-family="Times,serif" font-size="14.00">provider :character varying</text>
<text text-anchor="start" x="233.053" y="-366.3" font-family="Times,serif" font-size="14.00">uid :character varying</text>
</g>
<!-- User&#45;&gt;Comment -->
<g id="edge3" class="edge"><title>User&#45;&gt;Comment</title>
<path fill="none" stroke="#1496ea" d="M283.247,-352.009C275.768,-338.081 269.342,-323.629 264.688,-309 243.533,-242.506 253.899,-220.939 264.688,-152 266.101,-142.971 268.238,-133.623 270.733,-124.486"/>
<ellipse fill="none" stroke="#1496ea" cx="285.313" cy="-355.744" rx="4.00002" ry="4.00002"/>
<polygon fill="#1496ea" stroke="#1496ea" points="270.791,-124.286 277.888,-115.927 272.178,-119.483 273.565,-114.679 273.565,-114.679 273.565,-114.679 272.178,-119.483 269.241,-113.431 270.791,-124.286 270.791,-124.286"/>
</g>
<!-- User&#45;&gt;Post -->
<g id="edge2" class="edge"><title>User&#45;&gt;Post</title>
<path fill="none" stroke="#601c6d" d="M395.492,-351.089C396.484,-342.926 397.548,-334.842 398.688,-327 399.098,-324.177 399.536,-321.311 399.998,-318.42"/>
<ellipse fill="none" stroke="#601c6d" cx="394.995" cy="-355.299" rx="4.00001" ry="4.00001"/>
<polygon fill="#601c6d" stroke="#601c6d" points="400.004,-318.386 406.087,-309.262 400.826,-313.454 401.648,-308.522 401.648,-308.522 401.648,-308.522 400.826,-313.454 397.209,-307.782 400.004,-318.386 400.004,-318.386"/>
</g>
<!-- User&#45;&gt;Post -->
<g id="edge4" class="edge"><title>User&#45;&gt;Post</title>
<path fill="none" stroke="#5ba873" d="M401.96,-349.218C403.338,-338.908 404.708,-328.652 406.033,-318.737"/>
<polygon fill="#5ba873" stroke="#5ba873" points="401.932,-349.429 396.147,-358.745 401.27,-354.385 400.608,-359.341 400.608,-359.341 400.608,-359.341 401.27,-354.385 405.068,-359.937 401.932,-349.429 401.932,-349.429"/>
<polygon fill="#5ba873" stroke="#5ba873" points="406.07,-318.453 411.855,-309.137 406.733,-313.497 407.395,-308.541 407.395,-308.541 407.395,-308.541 406.733,-313.497 402.934,-307.945 406.07,-318.453 406.07,-318.453"/>
<text text-anchor="middle" x="454.236" y="-329.8" font-family="Times,serif" font-size="14.00">commented_posts</text>
</g>
</g>
</svg>
