<?xml version="1.0" encoding="UTF-8" standalone="no"?>
<!DOCTYPE svg PUBLIC "-//W3C//DTD SVG 1.1//EN"
 "http://www.w3.org/Graphics/SVG/1.1/DTD/svg11.dtd">
<!-- Generated by graphviz version 2.38.0 (20140413.2041)
 -->
<!-- Title: models_diagram Pages: 1 -->
<svg width="381pt" height="240pt"
 viewBox="0.00 0.00 380.78 240.00" xmlns="http://www.w3.org/2000/svg" xmlns:xlink="http://www.w3.org/1999/xlink">
<g id="graph0" class="graph" transform="scale(1 1) rotate(0) translate(4 236)">
<title>models_diagram</title>
<polygon fill="none" stroke="none" points="-4,4 -4,-236 376.784,-236 376.784,4 -4,4"/>
<!-- _diagram_info -->
<g id="node1" class="node"><title>_diagram_info</title>
<text text-anchor="start" x="8" y="-217.6" font-family="Times,serif" font-size="13.00">Models diagram</text>
<text text-anchor="start" x="8" y="-204.6" font-family="Times,serif" font-size="13.00">Date: Jul 18 2016 &#45; 15:50</text>
<text text-anchor="start" x="8" y="-191.6" font-family="Times,serif" font-size="13.00">Migration version: 20160717205744</text>
<text text-anchor="start" x="8" y="-178.6" font-family="Times,serif" font-size="13.00">Generated by RailRoady 1.5.1</text>
<text text-anchor="start" x="8" y="-165.6" font-family="Times,serif" font-size="13.00">http://railroady.prestonlee.com</text>
</g>
<!-- Comment -->
<g id="node2" class="node"><title>Comment</title>
<ellipse fill="none" stroke="black" cx="247.688" cy="-18" rx="44.9768" ry="18"/>
<text text-anchor="middle" x="247.688" y="-13.8" font-family="Times,serif" font-size="14.00">Comment</text>
</g>
<!-- Post -->
<g id="node3" class="node"><title>Post</title>
<ellipse fill="none" stroke="black" cx="282.688" cy="-91" rx="27" ry="18"/>
<text text-anchor="middle" x="282.688" y="-86.8" font-family="Times,serif" font-size="14.00">Post</text>
</g>
<!-- Post&#45;&gt;Comment -->
<g id="edge1" class="edge"><title>Post&#45;&gt;Comment</title>
<path fill="none" stroke="#1e3f70" d="M270.98,-66.2508C267.606,-59.4061 263.908,-51.9045 260.472,-44.9345"/>
<ellipse fill="none" stroke="#1e3f70" cx="272.801" cy="-69.945" rx="4.00002" ry="4.00002"/>
<polygon fill="#1e3f70" stroke="#1e3f70" points="260.426,-44.8404 260.041,-33.8813 258.215,-40.3557 256.004,-35.871 256.004,-35.871 256.004,-35.871 258.215,-40.3557 251.968,-37.8607 260.426,-44.8404 260.426,-44.8404"/>
</g>
<!-- User -->
<g id="node4" class="node"><title>User</title>
<ellipse fill="none" stroke="black" cx="252.688" cy="-195.5" rx="27" ry="18"/>
<text text-anchor="middle" x="252.688" y="-191.3" font-family="Times,serif" font-size="14.00">User</text>
</g>
<!-- User&#45;&gt;Comment -->
<g id="edge3" class="edge"><title>User&#45;&gt;Comment</title>
<path fill="none" stroke="#65a5c2" d="M250.443,-169.178C249.052,-152.175 247.398,-129.262 246.688,-109 246.127,-93.0098 246.54,-88.9993 246.688,-73 246.768,-64.2977 246.922,-54.8076 247.085,-46.2447"/>
<ellipse fill="none" stroke="#65a5c2" cx="250.806" cy="-173.499" rx="4" ry="4"/>
<polygon fill="#65a5c2" stroke="#65a5c2" points="247.089,-46.0214 251.791,-36.1145 247.191,-41.0224 247.292,-36.0234 247.292,-36.0234 247.292,-36.0234 247.191,-41.0224 242.793,-35.9323 247.089,-46.0214 247.089,-46.0214"/>
</g>
<!-- User&#45;&gt;Post -->
<g id="edge2" class="edge"><title>User&#45;&gt;Post</title>
<path fill="none" stroke="#287fb8" d="M256.523,-169.333C258.827,-156.486 262.194,-140.714 266.688,-127 267.675,-123.986 268.847,-120.887 270.1,-117.837"/>
<ellipse fill="none" stroke="#287fb8" cx="255.835" cy="-173.359" rx="4.00001" ry="4.00001"/>
<polygon fill="#287fb8" stroke="#287fb8" points="270.215,-117.576 278.373,-110.248 272.236,-113.003 274.257,-108.429 274.257,-108.429 274.257,-108.429 272.236,-113.003 270.14,-106.611 270.215,-117.576 270.215,-117.576"/>
</g>
<!-- User&#45;&gt;Post -->
<g id="edge4" class="edge"><title>User&#45;&gt;Post</title>
<path fill="none" stroke="#cb3024" d="M260.471,-167.908C264.897,-152.785 270.424,-133.9 274.858,-118.75"/>
<polygon fill="#cb3024" stroke="#cb3024" points="260.451,-167.977 253.323,-176.31 259.046,-172.776 257.642,-177.574 257.642,-177.574 257.642,-177.574 259.046,-172.776 261.96,-178.838 260.451,-167.977 260.451,-167.977"/>
<polygon fill="#cb3024" stroke="#cb3024" points="274.917,-118.548 282.045,-110.215 276.322,-113.75 277.726,-108.951 277.726,-108.951 277.726,-108.951 276.322,-113.75 273.408,-107.687 274.917,-118.548 274.917,-118.548"/>
<text text-anchor="middle" x="322.236" y="-129.8" font-family="Times,serif" font-size="14.00">commented_posts</text>
</g>
</g>
</svg>
