<?xml version="1.0" standalone="no"?>
<!DOCTYPE svg PUBLIC "-//W3C//DTD SVG 20010904//EN"
 "http://www.w3.org/TR/2001/REC-SVG-20010904/DTD/svg10.dtd">
<svg version="1.0" xmlns="http://www.w3.org/2000/svg"
 width="260.000000pt" height="260.000000pt" viewBox="0 0 260.000000 260.000000"
 preserveAspectRatio="xMidYMid meet">
<metadata>
Created by potrace 1.11, written by Peter Selinger 2001-2013
</metadata>
<g transform="translate(0.000000,260.000000) scale(0.100000,-0.100000)"
fill="#000000" stroke="none">
<path d="M748 2580 c-138 -29 -231 -68 -343 -143 -159 -108 -290 -279 -353
-462 -47 -139 -52 -199 -52 -675 0 -476 5 -536 52 -675 91 -265 308 -482 573
-573 139 -47 199 -52 675 -52 476 0 536 5 675 52 265 91 482 308 573 573 47
139 52 199 52 675 0 476 -5 536 -52 675 -91 265 -308 482 -573 573 -140 48
-198 52 -684 51 -402 0 -466 -3 -543 -19z m1112 -229 c245 -73 421 -252 492
-496 23 -79 23 -89 23 -555 0 -466 0 -476 -23 -555 -72 -247 -250 -425 -497
-497 -79 -23 -89 -23 -555 -23 -466 0 -476 0 -555 23 -247 72 -425 250 -497
497 -23 79 -23 89 -23 555 0 466 0 476 23 555 81 278 301 471 587 515 27 5
253 7 500 6 434 -2 453 -3 525 -25z"/>
<path d="M1769 1956 c-85 -30 -141 -102 -147 -189 -10 -137 84 -240 218 -240
206 0 297 251 141 385 -63 53 -141 70 -212 44z"/>
<path d="M644 1846 c-43 -19 -64 -53 -64 -104 0 -58 38 -97 103 -107 83 -13
259 -2 288 18 71 47 61 160 -16 193 -46 19 -267 19 -311 0z"/>
<path d="M652 1243 c-18 -9 -45 -32 -60 -51 -25 -33 -27 -42 -27 -141 0 -82 6
-123 24 -181 77 -251 278 -447 531 -516 82 -23 280 -25 360 -5 290 74 505 296
564 583 34 163 12 260 -69 305 -63 36 -127 30 -353 -28 -178 -46 -207 -51
-307 -51 -114 -1 -169 9 -400 72 -125 33 -213 38 -263 13z m322 -258 c285 -73
395 -72 693 6 83 21 156 39 161 39 13 0 -1 -72 -27 -139 -63 -167 -209 -289
-391 -327 -222 -47 -467 71 -570 276 -37 72 -68 190 -51 190 6 0 89 -20 185
-45z"/>
</g>
</svg>
